<svg width="30" height="30" viewBox="0 0 30 30" fill="none" xmlns="http://www.w3.org/2000/svg">
<path d="M18.75 28.4375H11.25C4.4625 28.4375 1.5625 25.5375 1.5625 18.75V11.25C1.5625 4.4625 4.4625 1.5625 11.25 1.5625H18.75C25.5375 1.5625 28.4375 4.4625 28.4375 11.25V18.75C28.4375 25.5375 25.5375 28.4375 18.75 28.4375ZM11.25 3.4375C5.4875 3.4375 3.4375 5.4875 3.4375 11.25V18.75C3.4375 24.5125 5.4875 26.5625 11.25 26.5625H18.75C24.5125 26.5625 26.5625 24.5125 26.5625 18.75V11.25C26.5625 5.4875 24.5125 3.4375 18.75 3.4375H11.25Z" fill="#292D32"/>
<path d="M15 20.3125C12.075 20.3125 9.6875 17.925 9.6875 15C9.6875 12.075 12.075 9.6875 15 9.6875C17.925 9.6875 20.3125 12.075 20.3125 15C20.3125 17.925 17.925 20.3125 15 20.3125ZM15 11.5625C13.1 11.5625 11.5625 13.1 11.5625 15C11.5625 16.9 13.1 18.4375 15 18.4375C16.9 18.4375 18.4375 16.9 18.4375 15C18.4375 13.1 16.9 11.5625 15 11.5625Z" fill="#292D32"/>
<path d="M21.25 9.37488C21.0875 9.37488 20.925 9.33738 20.775 9.27488C20.625 9.21238 20.4875 9.12488 20.3625 9.01238C20.25 8.88738 20.15 8.74988 20.0875 8.59988C20.025 8.44988 20 8.28738 20 8.12488C20 7.96238 20.025 7.79988 20.0875 7.64988C20.1625 7.48738 20.25 7.36238 20.3625 7.23738C20.425 7.18738 20.4875 7.12488 20.55 7.08738C20.625 7.03738 20.7 6.99988 20.775 6.97488C20.85 6.93738 20.925 6.91238 21.0125 6.89988C21.4125 6.81238 21.8375 6.94988 22.1375 7.23738C22.25 7.36238 22.3375 7.48738 22.4 7.64988C22.4625 7.79988 22.5 7.96238 22.5 8.12488C22.5 8.28738 22.4625 8.44988 22.4 8.59988C22.3375 8.74988 22.25 8.88738 22.1375 9.01238C22.0125 9.12488 21.875 9.21238 21.725 9.27488C21.575 9.33738 21.4125 9.37488 21.25 9.37488Z" fill="#292D32"/>
</svg>
