<svg width="56" height="56" viewBox="0 0 56 56" fill="none" xmlns="http://www.w3.org/2000/svg">
<path d="M52.5981 3.40195C49.8398 0.64382 45.7899 -0.497293 41.7651 0.34883C37.4895 1.24787 34.0273 4.1236 32.5035 8.0415C32.4872 8.08339 32.4729 8.12601 32.4604 8.16935L28.204 22.968C28.1307 23.2228 28.127 23.4926 28.1933 23.7493C28.2596 24.0061 28.3934 24.2403 28.5809 24.4278L29.0269 24.8738L20.7631 33.1376C19.6835 32.4235 18.4384 31.999 17.1474 31.9047C16.9343 31.8886 16.7202 31.9187 16.5198 31.993C16.3195 32.0673 16.1375 32.184 15.9863 32.3351L1.66255 46.659C0.64586 47.6781 0.0748901 49.0588 0.0748901 50.4982C0.0748901 51.9377 0.64586 53.3184 1.66255 54.3375C2.6816 55.3541 4.06228 55.9251 5.50173 55.9251C6.94119 55.9251 8.32187 55.3541 9.34092 54.3375L23.6646 40.0138C23.8158 39.8627 23.9325 39.6807 24.0068 39.4803C24.0811 39.2799 24.1113 39.0658 24.0952 38.8527C24.0009 37.5617 23.5764 36.3166 22.8623 35.2369L31.1261 26.9732L31.572 27.4191C31.7595 27.6066 31.9938 27.7404 32.2506 27.8067C32.5073 27.873 32.7771 27.8693 33.032 27.796L47.8306 23.5396C47.8738 23.5271 47.9164 23.5128 47.9583 23.4965C51.8762 21.9729 54.7519 18.5107 55.651 14.2351C56.4975 10.2099 55.3562 6.16022 52.5981 3.40195ZM32.4465 23.5527C41.9286 7.83265 48.1039 5.91972 50.2169 5.79128C50.0711 7.86274 48.1454 14.0758 32.4465 23.5527ZM35.2941 9.05721C36.4652 6.10833 39.1077 3.9412 42.3759 3.25409C43.9767 2.89988 45.6427 2.97589 47.2045 3.47439C46.3318 3.81843 45.4927 4.24256 44.6982 4.74133C40.9672 7.05023 37.0257 11.256 32.9264 17.2893L35.2941 9.05721ZM52.7459 13.6243C52.0587 16.8924 49.8916 19.5348 46.9427 20.7059L38.7107 23.0736C44.7439 18.9743 48.9497 15.0329 51.2586 11.3019C51.7574 10.5073 52.1815 9.66815 52.5256 8.7953C53.0241 10.3573 53.1001 12.0234 52.7458 13.6243H52.7459Z" fill="#292D32"/>
</svg>
