<svg width="68" height="68" viewBox="0 0 68 68" fill="none" xmlns="http://www.w3.org/2000/svg">
<g opacity="0.1">
<path d="M54.1995 6.05896H13.8032V12.6319H54.1995V6.05896Z" stroke="#292D32" stroke-width="3" stroke-linejoin="round"/>
<path d="M13.8032 12.6305L9.46019 19.0958C9.46019 19.0958 5.90613 23.6566 5.90613 32.4368V62.2506H46.301V31.9972C46.301 31.9972 45.3714 25.7696 49.786 19.1994L54.1994 12.6305H13.8032Z" stroke="#292D32" stroke-width="3" stroke-linejoin="round"/>
<path d="M54.1995 12.6305L58.5013 19.0347C58.5013 19.0347 62.0965 24.241 62.0965 31.5576V62.2506H46.3011" stroke="#292D32" stroke-width="3" stroke-linejoin="round"/>
<path d="M31.9361 17.7969C30.9578 17.7983 30.0166 18.172 29.3038 18.8421V18.8341L29.2467 18.8886C29.2188 18.9152 29.1922 18.9404 29.1657 18.967L26.3447 21.6737L29.1564 24.3698C29.1922 24.407 29.2294 24.4402 29.2666 24.476L29.3038 24.5119C29.7665 24.9402 30.3268 25.249 30.9359 25.4116C31.5451 25.5741 32.1848 25.5855 32.7993 25.4447C33.4139 25.3039 33.9848 25.0152 34.4625 24.6036C34.9401 24.1921 35.3101 23.6701 35.5402 23.0831C35.7703 22.4961 35.8536 21.8618 35.7829 21.2353C35.7122 20.6088 35.4896 20.009 35.1344 19.4881C34.7792 18.9671 34.3022 18.5408 33.7449 18.2461C33.1875 17.9513 32.5666 17.7971 31.9361 17.7969V17.7969Z" stroke="#292D32" stroke-width="3" stroke-linejoin="round"/>
<path d="M20.7851 17.7969C21.7591 17.7987 22.6955 18.1726 23.4029 18.8421V18.8341L23.4586 18.8886C23.4852 18.9152 23.5131 18.9404 23.5397 18.967L26.3447 21.6737L23.5556 24.3698C23.5197 24.407 23.4825 24.4402 23.4467 24.476L23.4095 24.5119C22.7021 25.1813 21.7657 25.5552 20.7918 25.5571C20.2822 25.5575 19.7776 25.4576 19.3067 25.263C18.8357 25.0684 18.4077 24.783 18.0471 24.423C17.3188 23.696 16.9092 22.7094 16.9083 21.6803C16.9074 20.6512 17.3154 19.664 18.0424 18.9357C18.7695 18.2074 19.7561 17.7978 20.7851 17.7969Z" stroke="#292D32" stroke-width="3" stroke-linejoin="round"/>
<path d="M26.3447 21.6817L20.8025 31.9082L19.7599 28.9996L16.5724 29.1643C16.5724 29.1643 19.5407 20.7294 26.3447 21.6817Z" stroke="#292D32" stroke-width="3" stroke-linejoin="round"/>
<path d="M26.1946 21.6817L31.7368 31.9082L32.7794 28.9996L35.9669 29.1643C35.9669 29.1643 32.9999 20.7294 26.1946 21.6817Z" stroke="#292D32" stroke-width="3" stroke-linejoin="round"/>
</g>
</svg>
