<svg width="20" height="20" viewBox="0 0 20 20" fill="none" xmlns="http://www.w3.org/2000/svg">
<path d="M1.66666 1.66666H3.11667C4.01667 1.66666 4.725 2.44166 4.65 3.33332L3.95833 11.6333C3.84166 12.9916 4.91666 14.1583 6.28333 14.1583H15.1583C16.3583 14.1583 17.4083 13.175 17.5 11.9833L17.95 5.73333C18.05 4.34999 17 3.22499 15.6083 3.22499H4.85" stroke="#FF9ACB" stroke-width="1.5" stroke-miterlimit="10" stroke-linecap="round" stroke-linejoin="round"/>
<path d="M13.5417 18.3333C14.117 18.3333 14.5833 17.867 14.5833 17.2917C14.5833 16.7164 14.117 16.25 13.5417 16.25C12.9664 16.25 12.5 16.7164 12.5 17.2917C12.5 17.867 12.9664 18.3333 13.5417 18.3333Z" stroke="#FF9ACB" stroke-width="1.5" stroke-miterlimit="10" stroke-linecap="round" stroke-linejoin="round"/>
<path d="M6.875 18.3333C7.4503 18.3333 7.91667 17.867 7.91667 17.2917C7.91667 16.7164 7.4503 16.25 6.875 16.25C6.29971 16.25 5.83334 16.7164 5.83334 17.2917C5.83334 17.867 6.29971 18.3333 6.875 18.3333Z" stroke="#FF9ACB" stroke-width="1.5" stroke-miterlimit="10" stroke-linecap="round" stroke-linejoin="round"/>
<path d="M7.5 6.66666H17.5" stroke="#FF9ACB" stroke-width="1.5" stroke-miterlimit="10" stroke-linecap="round" stroke-linejoin="round"/>
</svg>
