<svg width="68" height="68" viewBox="0 0 68 68" fill="none" xmlns="http://www.w3.org/2000/svg">
<path d="M66.725 23.8L60.35 15.3043C60.1014 14.9706 59.806 14.6816 59.5 14.4054V4.25C59.5 1.904 57.596 0 55.25 0H12.75C10.4019 0 8.5 1.904 8.5 4.25V14.4075C8.194 14.6816 7.89862 14.9685 7.65 15.3L1.27713 23.7979C0.452625 24.8944 0 26.2523 0 27.625V29.75C0 33.2648 2.86025 36.125 6.375 36.125V63.75C6.375 66.096 8.279 68 10.625 68H57.375C59.721 68 61.625 66.096 61.625 63.75V36.125C65.1397 36.125 68 33.2648 68 29.75V27.625C68 26.2523 67.5474 24.8944 66.725 23.8ZM55.25 4.25V12.75H12.75V4.25H55.25ZM21.6601 31.875H12.7585L21.2585 17H25.9101L21.6601 31.875ZM28.1222 17H32.9375V31.875H23.8722L28.1222 17ZM35.0625 17H39.8778L44.1278 31.875H35.0625V17ZM42.0856 17H46.7372L55.2372 31.875H46.3356L42.0856 17ZM4.25 29.75V27.625C4.25 27.1639 4.39875 26.7176 4.675 26.35L11.05 17.85C11.4516 17.3145 12.0806 17 12.75 17H18.8105L10.3105 31.875H6.375C5.202 31.875 4.25 30.9251 4.25 29.75ZM42.5 63.75H26.5625V42.5H42.5V63.75ZM57.375 63.75H44.625V42.5C44.625 41.3249 43.6709 40.375 42.5 40.375H26.5625C25.3895 40.375 24.4375 41.3249 24.4375 42.5V63.75H10.625V36.125H57.375V63.75ZM63.75 29.75C63.75 30.9251 62.8001 31.875 61.625 31.875H57.6852L49.1852 17H55.25C55.9173 17 56.5484 17.3145 56.9479 17.85L63.3229 26.35C63.6012 26.7176 63.75 27.1639 63.75 27.625V29.75Z" fill="#292D32"/>
</svg>
